#!OML:ASF H:\ManfredETheater\Project 1\Capture day 1\Session 1\subject.ASF
:FULLY-SPECIFIED
:DEGREES
60
root 11.2848 15.6333 18.8342 -169.564 -27.4603 -180.094
lowerback 20.3742 -2.67125 4.37045
upperback 0.609165 -2.41524 4.40621
thorax -10.7649 -1.3856 3.12573
lowerneck -18.8929 1.60813 -2.87626
upperneck -9.63299 1.00995 -2.25383
head 0.0155695 -0.141411 -0.176687
rclavicle 3.65764e-014 4.92986e-014
rhumerus -38.4781 -5.59854 -75.0394
rradius 60.318
rwrist -6.29993
rhand -37.4549 11.7046
rfingers 7.12502
rthumb -10.5134 -18.0125
lclavicle 3.65764e-014 4.92986e-014
lhumerus -32.1707 -13.4351 97.121
lradius 91.9177
lwrist 4.51915
lhand -33.3489 -19.4885
lfingers 7.12502
lthumb -6.55106 10.3902
rfemur -54.8745 0.0545803 23.927
rtibia 62.0852
rfoot -12.6754 -7.40065
rtoes -21.9844
lfemur -17.3592 2.86133 -18.1291
ltibia 100.771
lfoot 13.8566 -8.65912
ltoes 6.34505
61
root 11.1366 15.7109 18.4575 -170.039 -27.0937 -179.326
lowerback 20.45 -2.5599 4.83444
upperback 0.476262 -2.1409 4.54407
thorax -10.974 -1.281 2.95024
lowerneck -19.0736 1.58855 -2.75921
upperneck -9.0045 1.05557 -2.3519
head 0.254344 -0.10504 -0.224005
rclavicle -6.91771e-014 -3.65764e-014
rhumerus -34.6672 -4.57781 -77.3395
rradius 61.7914
rwrist -5.90686
rhand -36.985 12.1389
rfingers 7.12502
rthumb -10.0602 -17.6007
lclavicle -6.91771e-014 -3.65764e-014
lhumerus -32.9052 -11.9517 96.0563
lradius 89.1207
lwrist 3.72557
lhand -32.9267 -20.0035
lfingers 7.12502
lthumb -6.14346 9.88737
rfemur -52.8297 0.294205 24.9311
rtibia 61.7599
rfoot -13.9848 -7.70992
rtoes -22.4881
lfemur -22.2023 4.69555 -16.9041
ltibia 106.315
lfoot 12.9024 -9.54878
ltoes 6.18109
62
root 10.992 15.794 18.0864 -170.374 -26.6291 -178.734
lowerback 20.5042 -2.39303 5.13599
upperback 0.307973 -1.82624 4.61534
thorax -11.206 -1.14864 2.77937
lowerneck -19.2774 1.55339 -2.64483
upperneck -8.2931 1.0929 -2.46616
head 0.526691 -0.0712068 -0.276612
rclavicle -1.63003e-014 2.22639e-014
rhumerus -31.1352 -2.88088 -79.6475
rradius 63.782
rwrist -5.44379
rhand -36.4069 12.5057
rfingers 7.12502
rthumb -9.50246 -17.26
lclavicle -1.63003e-014 2.22639e-014
lhumerus -34.0184 -10.9186 94.9259
lradius 87.3916
lwrist 2.72345
lhand -32.6285 -20.5693
lfingers 7.12502
lthumb -5.85553 9.32979
rfemur -50.7824 0.572922 25.7356
rtibia 61.2872
rfoot -15.2063 -7.9669
rtoes -22.8842
lfemur -27.2683 6.72325 -15.9385
ltibia 111.465
lfoot 11.9497 -10.3211
ltoes 6.09477
63
root 10.8494 15.8842 17.7187 -170.628 -26.0586 -178.24
lowerback 20.5425 -2.16917 5.35062
upperback 0.122898 -1.45525 4.6262
thorax -11.4456 -0.985919 2.57122
lowerneck -19.4937 1.50589 -2.51949
upperneck -7.53711 1.11794 -2.59245
head 0.81887 -0.0435578 -0.336041
rclavicle -3.65764e-014 -5.56597e-014
rhumerus -27.8967 -0.55981 -81.8058
rradius 66.1756
rwrist -4.92521
rhand -35.6988 12.7757
rfingers 7.12502
rthumb -8.81918 -17.02
lclavicle -3.65764e-014 -5.56597e-014
lhumerus -35.4784 -10.3593 93.7178
lradius 86.7766
lwrist 1.76111
lhand -32.4213 -21.1324
lfingers 7.12502
lthumb -5.65552 8.7721
rfemur -48.6627 0.898782 26.4203
rtibia 60.5832
rfoot -16.3 -8.14647
rtoes -23.1062
lfemur -32.5123 8.9335 -15.1966
ltibia 116.122
lfoot 11.0353 -11.0079
ltoes 6.00947
64
root 10.7074 15.9823 17.3533 -170.815 -25.3998 -177.802
lowerback 20.542 -1.89354 5.53934
upperback -0.0671656 -1.02515 4.57934
thorax -11.6671 -0.795584 2.2912
lowerneck -19.7408 1.43779 -2.39472
upperneck -6.76521 1.11665 -2.71069
head 1.1243 -0.030213 -0.395182
rclavicle -3.18055e-014 1.90833e-014
rhumerus -24.9375 2.28158 -83.6686
rradius 68.8608
rwrist -4.38319
rhand -34.9148 12.9684
rfingers 7.12502
rthumb -8.06257 -16.8578
lclavicle -3.18055e-014 1.90833e-014
lhumerus -37.1736 -10.2379 92.4236
lradius 87.1779
lwrist 1.03383
lhand -32.2788 -21.5584
lfingers 7.12502
lthumb -5.51789 8.34974
rfemur -46.4683 1.24155 27.0336
rtibia 59.6311
rfoot -17.2513 -8.24159
rtoes -23.237
lfemur -37.9421 11.2453 -14.6985
ltibia 120.23
lfoot 10.1375 -11.6473
ltoes 5.79275
65
root 10.5661 16.0889 16.9875 -170.938 -24.6366 -177.405
lowerback 20.4809 -1.5473 5.69067
upperback -0.260038 -0.516205 4.4781
thorax -11.853 -0.567702 1.94277
lowerneck -19.9823 1.33742 -2.27662
upperneck -6.00725 1.07184 -2.80557
head 1.42668 -0.0384355 -0.449576
rclavicle -1.63003e-014 -2.70347e-014
rhumerus -22.2693 5.48518 -85.1177
rradius 71.7645
rwrist -3.84862
rhand -34.0846 13.0255
rfingers 7.12502
rthumb -7.26127 -16.8299
lclavicle -1.63003e-014 -2.70347e-014
lhumerus -38.9711 -10.4451 91.0252
lradius 88.3632
lwrist 0.624116
lhand -32.0866 -21.7861
lfingers 7.12502
lthumb -5.3323 8.12686
rfemur -44.1888 1.63333 27.5843
rtibia 58.4177
rfoot -18.0386 -8.26507
rtoes -23.2728
lfemur -43.5363 13.5942 -14.4676
ltibia 123.735
lfoot 9.25206 -12.2625
ltoes 5.37922
66
root 10.4225 16.2061 16.6201 -171.056 -23.9083 -177.08
lowerback 20.4066 -1.18011 5.85705
upperback -0.442966 0.0191454 4.3176
thorax -12.0142 -0.330503 1.50913
lowerneck -20.2106 1.19053 -2.17813
upperneck -5.27292 0.965762 -2.87634
head 1.72081 -0.0766615 -0.498352
rclavicle -2.54444e-014 3.81667e-014
rhumerus -19.8646 8.87035 -86.0666
rradius 74.8186
rwrist -3.36411
rhand -33.2962 12.9591
rfingers 7.12502
rthumb -6.50015 -16.9211
lclavicle -2.54444e-014 3.81667e-014
lhumerus -40.7353 -10.8624 89.5077
lradius 90.0561
lwrist 0.527976
lhand -31.8295 -21.7505
lfingers 7.12502
lthumb -5.08408 8.16852
rfemur -41.7362 1.94168 28.044
rtibia 56.9333
rfoot -18.6651 -8.23163
rtoes -23.3127
lfemur -49.2209 15.6603 -14.5768
ltibia 126.581
lfoot 8.40965 -12.801
ltoes 4.62039
67
root 10.2769 16.3351 16.2487 -171.154 -23.2332 -176.854
lowerback 20.2952 -0.78347 5.99741
upperback -0.618812 0.581095 4.10268
thorax -12.1378 -0.0806707 1.01915
lowerneck -20.4005 0.986207 -2.11089
upperneck -4.57009 0.786015 -2.92839
head 1.99903 -0.150378 -0.542511
rclavicle -1.11319e-014 -5.48646e-014
rhumerus -17.7005 12.2547 -86.4776
rradius 77.9635
rwrist -2.95768
rhand -32.5929 12.8278
rfingers 7.12502
rthumb -5.82118 -17.0722
lclavicle -1.11319e-014 -5.48646e-014
lhumerus -42.3536 -11.3673 87.8504
lradius 91.9503
lwrist 0.664699
lhand -31.5281 -21.4999
lfingers 7.12502
lthumb -4.79311 8.42589
rfemur -39.1161 2.18089 28.3796
rtibia 55.1698
rfoot -19.0871 -8.1599
rtoes -23.4038
lfemur -54.9525 17.2716 -15.0356
ltibia 128.733
lfoot 7.68468 -13.2109
ltoes 3.73365
68
root 10.1285 16.4787 15.8715 -171.256 -22.6707 -176.75
lowerback 20.1625 -0.377025 6.10042
upperback -0.782111 1.1415 3.84105
thorax -12.2258 0.16984 0.498144
lowerneck -20.5655 0.726226 -2.07804
upperneck -3.86601 0.539679 -2.97552
head 2.27483 -0.256409 -0.585969
rclavicle -5.64548e-014 -5.88403e-014
rhumerus -15.739 15.4922 -86.3592
rradius 81.1289
rwrist -2.69377
rhand -32.0052 12.7223
rfingers 7.12502
rthumb -5.25372 -17.1926
lclavicle -5.64548e-014 -5.88403e-014
lhumerus -43.7448 -11.8484 86.0342
lradius 93.7821
lwrist 0.930527
lhand -31.2141 -21.0961
lfingers 7.12502
lthumb -4.48984 8.83628
rfemur -36.2888 2.32892 28.5659
rtibia 53.1123
rfoot -19.2626 -8.07321
rtoes -23.651
lfemur -60.5958 18.2373 -15.7783
ltibia 130.161
lfoot 7.11763 -13.4622
ltoes 2.89442
69
root 9.97688 16.6387 15.4873 -171.383 -22.2627 -176.773
lowerback 20.0267 0.0173702 6.16601
upperback -0.932135 1.67275 3.5416
thorax -12.2889 0.408442 -0.0342714
lowerneck -20.6977 0.420496 -2.07268
upperneck -3.14563 0.240448 -3.03168
head 2.55218 -0.388452 -0.633891
rclavicle -7.95139e-016 -3.73715e-014
rhumerus -13.9659 18.4596 -85.7719
rradius 84.2413
rwrist -2.57492
rhand -31.5142 12.7299
rfingers 7.12502
rthumb -4.77968 -17.1961
lclavicle -7.95139e-016 -3.73715e-014
lhumerus -44.9054 -12.2313 84.052
lradius 95.3842
lwrist 1.24284
lhand -30.9256 -20.5584
lfingers 7.12502
lthumb -4.21132 9.37971
rfemur -33.2294 2.3922 28.5944
rtibia 50.7473
rfoot -19.1273 -7.97605
rtoes -24.091
lfemur -65.9868 18.4685 -16.6685
ltibia 130.864
lfoot 6.72512 -13.5257
ltoes 2.25145
70
root 9.82196 16.8169 15.0954 -171.558 -22.0253 -176.902
lowerback 19.9036 0.380337 6.20012
upperback -1.06836 2.15197 3.21813
thorax -12.338 0.624167 -0.558703
lowerneck -20.7774 0.0903191 -2.0858
upperneck -2.40989 -0.0856989 -3.0991
head 2.82729 -0.533717 -0.68661
rclavicle 9.89948e-014 2.46493e-014
rhumerus -12.3703 21.1104 -84.8139
rradius 87.2194
rwrist -2.62742
rhand -31.1445 12.8821
rfingers 7.12502
rthumb -4.4227 -17.0518
lclavicle 9.89948e-014 2.46493e-014
lhumerus -45.8693 -12.4674 81.9091
lradius 96.6545
lwrist 1.57362
lhand -30.6984 -19.9139
lfingers 7.12502
lthumb -3.99192 10.0284
rfemur -29.9245 2.40731 28.483
rtibia 48.0612
rfoot -18.6091 -7.84544
rtoes -24.7087
lfemur -70.951 18.0219 -17.5326
ltibia 130.864
lfoot 6.47722 -13.4083
ltoes 1.78507
71
root 9.66381 17.0138 14.6953 -171.787 -21.9482 -177.113
lowerback 19.8013 0.699931 6.20844
upperback -1.19131 2.56553 2.88166
thorax -12.3809 0.810271 -1.06237
lowerneck -20.7914 -0.242707 -2.11037
upperneck -1.67112 -0.414318 -3.16577
head 3.09321 -0.679825 -0.738972
rclavicle 1.17283e-014 1.11319e-014
rhumerus -10.9384 23.4337 -83.5939
rradius 89.9919
rwrist -2.87519
rhand -30.8551 13.1676
rfingers 7.12502
rthumb -4.14324 -16.7719
lclavicle 1.17283e-014 1.11319e-014
lhumerus -46.6836 -12.5384 79.6246
lradius 97.5445
lwrist 1.94466
lhand -30.5322 -19.1866
lfingers 7.12502
lthumb -3.83143 10.7588
rfemur -26.3874 2.42214 28.259
rtibia 45.0488
rfoot -17.6304 -7.66028
rtoes -25.535
lfemur -75.3611 17.0525 -18.2327
ltibia 130.207
lfoot 6.35559 -13.1065
ltoes 1.56157
72
root 9.50261 17.2284 14.2877 -172.067 -22.0003 -177.367
lowerback 19.7174 0.971323 6.20485
upperback -1.30417 2.9106 2.54215
thorax -12.4218 0.964476 -1.54162
lowerneck -20.7348 -0.561605 -2.13236
upperneck -0.943177 -0.729163 -3.223
head 3.34373 -0.818656 -0.788545
rclavicle -4.25399e-014 -3.33958e-014
rhumerus -9.67053 25.4389 -82.2343
rradius 92.5068
rwrist -3.28967
rhand -30.641 13.5616
rfingers 7.12502
rthumb -3.93647 -16.3818
lclavicle -4.25399e-014 -3.33958e-014
lhumerus -47.3932 -12.4619 77.2248
lradius 98.0399
lwrist 2.41935
lhand -30.4221 -18.3916
lfingers 7.12502
lthumb -3.72507 11.5556
rfemur -22.6502 2.47692 27.9727
rtibia 41.7097
rfoot -16.0987 -7.41364
rtoes -26.679
lfemur -79.1748 15.7649 -18.6971
ltibia 128.963
lfoot 6.35392 -12.6388
ltoes 1.74185
73
root 9.33814 17.4605 13.8728 -172.399 -22.1376 -177.63
lowerback 19.6349 1.20781 6.18609
upperback -1.39598 3.20287 2.22031
thorax -12.4404 1.09547 -1.97593
lowerneck -20.8823 -0.883414 -2.26511
upperneck 0.269198 -1.01382 -3.23479
head 3.32352 -0.955735 -0.751894
rclavicle -9.56154e-014 -2.70347e-014
rhumerus -8.55122 27.1466 -80.8006
rradius 94.7384
rwrist -3.84578
rhand -30.448 14.0341
rfingers 7.12502
rthumb -3.75012 -15.9127
lclavicle -9.56154e-014 -2.70347e-014
lhumerus -48.0106 -12.2582 74.764
lradius 98.1355
lwrist 3.04074
lhand -30.3383 -17.5949
lfingers 7.12502
lthumb -3.64418 12.3537
rfemur -18.752 2.60719 27.6634
rtibia 38.0467
rfoot -13.9533 -7.04608
rtoes -27.8113
lfemur -82.376 14.3517 -18.9134
ltibia 127.198
lfoot 6.41223 -12.0374
ltoes 2.10684
